<svg xmlns="http://www.w3.org/2000/svg" xmlns:xlink="http://www.w3.org/1999/xlink" width="300" zoomAndPan="magnify" viewBox="0 0 224.87999 374.999991" height="500" preserveAspectRatio="xMidYMid meet" version="1.0"><path fill="#fabc3f" d="M 218.863281 262.246094 C 218.863281 278.34375 216.285156 292.988281 211.132812 306.1875 C 205.992188 319.382812 198.667969 330.644531 189.171875 339.980469 C 179.683594 349.308594 168.339844 356.550781 155.144531 361.707031 C 141.945312 366.855469 127.300781 369.433594 111.203125 369.433594 C 96.71875 369.433594 82.875 367.175781 69.683594 362.664062 C 56.484375 358.160156 44.898438 351.640625 34.914062 343.105469 C 24.941406 334.578125 16.976562 324.199219 11.019531 311.96875 C 5.070312 299.742188 2.097656 285.910156 2.097656 270.460938 C 2.097656 255.65625 4.667969 242.9375 9.8125 232.320312 C 14.960938 221.699219 21.964844 212.925781 30.816406 206.003906 C 39.664062 199.082031 50.042969 193.933594 61.953125 190.5625 C 73.859375 187.179688 86.574219 185.488281 100.097656 185.488281 L 100.097656 187.417969 C 88.511719 188.058594 77.804688 190.878906 67.984375 195.871094 C 58.171875 200.859375 49.804688 207.375 42.878906 215.414062 C 35.964844 223.460938 30.578125 232.632812 26.714844 242.9375 C 22.851562 253.234375 20.917969 264.179688 20.917969 275.773438 C 20.917969 288.96875 23.089844 300.953125 27.4375 311.730469 C 31.78125 322.519531 37.8125 331.769531 45.535156 339.492188 C 53.265625 347.222656 62.597656 353.175781 73.546875 357.355469 C 84.488281 361.542969 96.558594 363.636719 109.757812 363.636719 C 135.824219 363.636719 156.179688 355.992188 170.820312 340.703125 C 185.476562 325.410156 192.800781 304.730469 192.800781 278.664062 C 192.800781 264.828125 189.660156 252.195312 183.375 240.769531 C 177.097656 229.34375 169.214844 218.566406 159.714844 208.425781 C 150.226562 198.273438 139.929688 188.535156 128.832031 179.203125 C 117.726562 169.871094 107.425781 160.542969 97.929688 151.207031 C 88.425781 141.878906 80.542969 132.21875 74.269531 122.238281 C 67.992188 112.257812 64.859375 101.476562 64.859375 89.890625 C 64.859375 81.523438 66.386719 73.960938 69.445312 67.207031 C 72.503906 60.445312 76.6875 54.804688 82 50.304688 C 87.308594 45.800781 93.5 42.347656 100.582031 39.933594 C 107.660156 37.515625 115.222656 36.304688 123.269531 36.304688 C 126.496094 36.304688 129.636719 36.625 132.695312 37.261719 C 135.753906 37.902344 138.726562 38.546875 141.617188 39.195312 L 153.683594 43.058594 C 160.121094 44.988281 166.238281 45.949219 172.03125 45.949219 C 176.542969 45.949219 180.085938 44.183594 182.652344 40.640625 L 179.273438 96.648438 C 177.984375 90.207031 175.734375 83.609375 172.519531 76.851562 C 169.300781 70.097656 165.199219 63.988281 160.203125 58.519531 C 155.214844 53.042969 149.582031 48.453125 143.296875 44.757812 C 137.023438 41.050781 130.191406 39.195312 122.796875 39.195312 C 110.886719 39.195312 100.667969 42.417969 92.132812 48.859375 C 83.605469 55.289062 79.34375 64.9375 79.34375 77.808594 C 79.34375 87.792969 82.796875 97.371094 89.710938 106.542969 C 96.632812 115.71875 105.242188 124.734375 115.539062 133.582031 C 125.84375 142.433594 137.03125 151.441406 149.09375 160.617188 C 161.167969 169.792969 172.355469 179.535156 182.652344 189.839844 C 192.957031 200.136719 201.5625 211.238281 208.480469 223.144531 C 215.402344 235.054688 218.863281 248.089844 218.863281 262.246094 Z M 218.863281 262.246094 " fill-opacity="1" fill-rule="nonzero"/><path fill="#fabc3f" d="M 92.46875 334.902344 C 87.824219 338.21875 83.003906 341.042969 78.019531 343.371094 C 73.035156 345.699219 67.714844 347.53125 62.054688 348.867188 L 62.054688 346.363281 C 75.027344 342.375 85.421875 335.476562 93.226562 325.660156 C 101.03125 315.855469 107.011719 304.894531 111.171875 292.761719 C 115.324219 280.628906 118.070312 267.828125 119.40625 254.363281 C 120.738281 240.902344 121.40625 228.515625 121.40625 217.210938 L 121.40625 47.160156 C 121.40625 43.507812 121.238281 39.691406 120.902344 35.699219 C 120.566406 31.699219 119.8125 27.878906 118.648438 24.222656 C 117.492188 20.558594 115.667969 17.316406 113.171875 14.496094 C 110.671875 11.671875 107.265625 9.597656 102.953125 8.261719 L 169.765625 8.261719 C 165.449219 9.597656 162.042969 11.671875 159.546875 14.496094 C 157.050781 17.316406 155.21875 20.558594 154.054688 24.222656 C 152.898438 27.878906 152.238281 31.699219 152.070312 35.699219 C 151.902344 39.691406 151.820312 43.507812 151.820312 47.160156 L 151.820312 217.210938 C 151.820312 241.152344 147.082031 263.34375 137.601562 283.789062 C 128.125 304.230469 113.078125 321.269531 92.46875 334.902344 Z M 92.46875 334.902344 " fill-opacity="1" fill-rule="nonzero"/></svg>