<svg xmlns="http://www.w3.org/2000/svg" xmlns:xlink="http://www.w3.org/1999/xlink" width="500" zoomAndPan="magnify" viewBox="0 0 375 374.999991" height="500" preserveAspectRatio="xMidYMid meet" version="1.0"><defs><g/></defs><g fill="#fabc3f" fill-opacity="1"><g transform="translate(65.823574, 278.138037)"><g><path d="M 210.546875 -15.265625 C 210.546875 -0.296875 208.148438 13.320312 203.359375 25.59375 C 198.578125 37.863281 191.769531 48.335938 182.9375 57.015625 C 174.113281 65.691406 163.566406 72.425781 151.296875 77.21875 C 139.023438 82.007812 125.40625 84.40625 110.4375 84.40625 C 96.96875 84.40625 84.097656 82.304688 71.828125 78.109375 C 59.554688 73.921875 48.78125 67.859375 39.5 59.921875 C 30.226562 51.992188 22.820312 42.34375 17.28125 30.96875 C 11.75 19.601562 8.984375 6.738281 8.984375 -7.625 C 8.984375 -21.394531 11.375 -33.21875 16.15625 -43.09375 C 20.945312 -52.96875 27.457031 -61.125 35.6875 -67.5625 C 43.914062 -74 53.566406 -78.785156 64.640625 -81.921875 C 75.710938 -85.066406 87.535156 -86.640625 100.109375 -86.640625 L 100.109375 -84.84375 C 89.335938 -84.25 79.382812 -81.628906 70.25 -76.984375 C 61.125 -72.347656 53.34375 -66.289062 46.90625 -58.8125 C 40.476562 -51.332031 35.46875 -42.800781 31.875 -33.21875 C 28.28125 -23.644531 26.484375 -13.46875 26.484375 -2.6875 C 26.484375 9.582031 28.503906 20.726562 32.546875 30.75 C 36.585938 40.78125 42.195312 49.382812 49.375 56.5625 C 56.5625 63.75 65.242188 69.285156 75.421875 73.171875 C 85.597656 77.066406 96.820312 79.015625 109.09375 79.015625 C 133.332031 79.015625 152.257812 71.90625 165.875 57.6875 C 179.5 43.46875 186.3125 24.238281 186.3125 0 C 186.3125 -12.863281 183.390625 -24.609375 177.546875 -35.234375 C 171.710938 -45.859375 164.378906 -55.882812 155.546875 -65.3125 C 146.722656 -74.75 137.148438 -83.804688 126.828125 -92.484375 C 116.503906 -101.160156 106.925781 -109.835938 98.09375 -118.515625 C 89.257812 -127.191406 81.925781 -136.171875 76.09375 -145.453125 C 70.257812 -154.734375 67.34375 -164.757812 67.34375 -175.53125 C 67.34375 -183.3125 68.765625 -190.34375 71.609375 -196.625 C 74.453125 -202.914062 78.34375 -208.15625 83.28125 -212.34375 C 88.21875 -216.53125 93.976562 -219.742188 100.5625 -221.984375 C 107.144531 -224.234375 114.175781 -225.359375 121.65625 -225.359375 C 124.65625 -225.359375 127.578125 -225.0625 130.421875 -224.46875 C 133.265625 -223.875 136.03125 -223.273438 138.71875 -222.671875 L 149.9375 -219.078125 C 155.925781 -217.285156 161.613281 -216.390625 167 -216.390625 C 171.195312 -216.390625 174.488281 -218.035156 176.875 -221.328125 L 173.734375 -169.25 C 172.535156 -175.238281 170.441406 -181.375 167.453125 -187.65625 C 164.460938 -193.9375 160.644531 -199.617188 156 -204.703125 C 151.363281 -209.796875 146.125 -214.0625 140.28125 -217.5 C 134.445312 -220.945312 128.09375 -222.671875 121.21875 -222.671875 C 110.144531 -222.671875 100.640625 -219.675781 92.703125 -213.6875 C 84.773438 -207.707031 80.8125 -198.734375 80.8125 -186.765625 C 80.8125 -177.484375 84.023438 -168.578125 90.453125 -160.046875 C 96.890625 -151.515625 104.894531 -143.132812 114.46875 -134.90625 C 124.050781 -126.675781 134.453125 -118.296875 145.671875 -109.765625 C 156.898438 -101.234375 167.300781 -92.175781 176.875 -82.59375 C 186.457031 -73.019531 194.460938 -62.695312 200.890625 -51.625 C 207.328125 -40.550781 210.546875 -28.429688 210.546875 -15.265625 Z M 210.546875 -15.265625 "/></g></g></g><g fill="#fabc3f" fill-opacity="1"><g transform="translate(155.137568, 253.919069)"><g><path d="M 3.703125 76.515625 C -0.617188 79.597656 -5.097656 82.222656 -9.734375 84.390625 C -14.367188 86.554688 -19.316406 88.257812 -24.578125 89.5 L -24.578125 87.171875 C -12.515625 83.460938 -2.851562 77.046875 4.40625 67.921875 C 11.664062 58.804688 17.226562 48.609375 21.09375 37.328125 C 24.957031 26.046875 27.507812 14.144531 28.75 1.625 C 29.988281 -10.894531 30.609375 -22.410156 30.609375 -32.921875 L 30.609375 -191.046875 C 30.609375 -194.441406 30.453125 -197.992188 30.140625 -201.703125 C 29.828125 -205.421875 29.128906 -208.976562 28.046875 -212.375 C 26.972656 -215.78125 25.273438 -218.796875 22.953125 -221.421875 C 20.628906 -224.046875 17.460938 -225.976562 13.453125 -227.21875 L 75.578125 -227.21875 C 71.566406 -225.976562 68.398438 -224.046875 66.078125 -221.421875 C 63.753906 -218.796875 62.050781 -215.78125 60.96875 -212.375 C 59.894531 -208.976562 59.28125 -205.421875 59.125 -201.703125 C 58.96875 -197.992188 58.890625 -194.441406 58.890625 -191.046875 L 58.890625 -32.921875 C 58.890625 -10.660156 54.484375 9.972656 45.671875 28.984375 C 36.859375 47.992188 22.867188 63.835938 3.703125 76.515625 Z M 3.703125 76.515625 "/></g></g></g></svg>